HIERARCHY
ROOT Hips
{
 OFFSET 0.000000 0.000000 0.000000
 CHANNELS 6 Xposition Yposition Zposition Yrotation Xrotation Zrotation
 JOINT Chest
 {
  OFFSET 0.000000 10.080317 -0.001081
  CHANNELS 3 Yrotation Xrotation Zrotation
  JOINT Chest2
  {
   OFFSET 0.000000 11.096852 0.001963
   CHANNELS 3 Yrotation Xrotation Zrotation
   JOINT Chest3
   {
    OFFSET 0.000000 10.026525 0.000000
    CHANNELS 3 Yrotation Xrotation Zrotation
    JOINT Chest4
    {
     OFFSET 0.000000 10.026525 0.000000
     CHANNELS 3 Yrotation Xrotation Zrotation
     JOINT Neck
     {
      OFFSET 0.000000 14.108171 0.000000
      CHANNELS 3 Yrotation Xrotation Zrotation
      JOINT Head
      {
       OFFSET 0.000000 9.333493 0.004668
       CHANNELS 3 Yrotation Xrotation Zrotation
       End Site
       {
        OFFSET 0.000000 17.851786 0.002438
       }
      }
     }
     JOINT RightCollar
     {
      OFFSET -3.071622 7.873185 0.000000
      CHANNELS 3 Yrotation Xrotation Zrotation
      JOINT RightShoulder
      {
       OFFSET -14.378659 0.000000 0.000000
       CHANNELS 3 Yrotation Xrotation Zrotation
       JOINT RightElbow
       {
        OFFSET -30.778728 0.000000 0.000000
        CHANNELS 3 Yrotation Xrotation Zrotation
        JOINT RightWrist
        {
         OFFSET -25.164217 0.000000 0.000000
         CHANNELS 3 Yrotation Xrotation Zrotation
         End Site
         {
          OFFSET -18.796788 0.000000 0.000000
         }
        }
       }
      }
     }
     JOINT LeftCollar
     {
      OFFSET 3.071622 7.873185 0.000000
      CHANNELS 3 Yrotation Xrotation Zrotation
      JOINT LeftShoulder
      {
       OFFSET 14.378659 0.000000 0.000000
       CHANNELS 3 Yrotation Xrotation Zrotation
       JOINT LeftElbow
       {
        OFFSET 30.778728 0.000000 0.000000
        CHANNELS 3 Yrotation Xrotation Zrotation
        JOINT LeftWrist
        {
         OFFSET 25.164217 0.000000 0.000000
         CHANNELS 3 Yrotation Xrotation Zrotation
         End Site
         {
          OFFSET 18.796788 0.000000 0.000000
         }
        }
       }
      }
     }
    }
   }
  }
 }
 JOINT RightHip
 {
  OFFSET -8.194923 0.005295 0.000540
  CHANNELS 3 Yrotation Xrotation Zrotation
  JOINT RightKnee
  {
   OFFSET 0.000000 -42.473320 -0.000511
   CHANNELS 3 Yrotation Xrotation Zrotation
   JOINT RightAnkle
   {
    OFFSET 0.000000 -41.474259 -0.000865
    CHANNELS 3 Yrotation Xrotation Zrotation
    JOINT RightToe
    {
     OFFSET 0.000000 -7.354994 16.712725
     CHANNELS 3 Yrotation Xrotation Zrotation
     End Site
     {
      OFFSET 0.000000 -1.553903 6.764158
     }
    }
   }
  }
 }
 JOINT LeftHip
 {
  OFFSET 8.194923 0.005295 0.000540
  CHANNELS 3 Yrotation Xrotation Zrotation
  JOINT LeftKnee
  {
   OFFSET 0.000000 -42.473320 -0.000511
   CHANNELS 3 Yrotation Xrotation Zrotation
   JOINT LeftAnkle
   {
    OFFSET 0.000000 -41.474259 -0.000865
    CHANNELS 3 Yrotation Xrotation Zrotation
    JOINT LeftToe
    {
     OFFSET 0.000000 -7.354994 16.712725
     CHANNELS 3 Yrotation Xrotation Zrotation
     End Site
     {
      OFFSET 0.000000 -1.553903 6.764158
     }
    }
   }
  }
 }
}
MOTION
Frames: 9
Frame Time: 0.016667
-41.225753 87.051119 151.386779 -0.201551 -7.542919 -1.158236 5.439008 5.317759 2.173274 2.475142 2.346361 0.843837 2.475142 2.346361 0.843837 1.852860 1.763226 0.623294 -2.294892 20.372221 3.770310 -5.305765 1.889313 7.549691 11.679813 -12.299640 4.938015 17.229144 -41.913544 25.743204 74.075578 2.672786 10.726620 1.354856 0.832756 -3.630086 -13.835475 -16.342127 -1.627593 -16.822770 -54.475829 -56.652981 -93.147492 -13.033402 -41.771657 0.834733 12.178995 21.893392 -18.298946 8.876031 -6.221697 -14.884641 25.648247 -7.514823 -19.621376 -22.010601 16.304157 1.129086 -0.286790 -0.310054 -6.456226 -22.978813 7.230256 -21.138918 24.528548 -7.802446 -6.215272 3.065922 -8.453840 -0.993774 -0.418876 -0.778573
-41.220431 87.262363 151.650602 -1.976163 -7.644343 -1.112632 4.824231 5.336279 1.811983 2.247464 2.327889 0.772790 2.247464 2.327889 0.772790 1.682424 1.748789 0.570957 -1.640844 20.553806 3.644350 -4.068350 2.165822 7.116394 10.231366 -12.328872 5.374336 15.738111 -40.836354 29.327920 80.910021 2.205533 12.210221 0.825898 1.535459 -3.330924 -14.131638 -16.361810 -1.608131 -16.522474 -54.863218 -55.826967 -92.030278 -11.001602 -40.291050 0.207837 12.195709 22.544686 -17.754869 9.322632 -6.267961 -13.884559 24.746548 -7.145044 -19.019553 -21.602703 15.924678 1.107613 -0.392529 -0.286965 -6.010031 -22.108290 7.624188 -20.390681 24.182589 -7.500865 -5.573029 2.783338 -8.384725 -1.082553 -0.348191 -0.803748
-41.188604 87.499008 151.897775 -3.911097 -7.648330 -1.152554 4.335479 5.259801 1.534078 2.021374 2.310286 0.703091 2.021374 2.310286 0.703091 1.513168 1.735065 0.519609 -0.957772 20.770252 3.522064 -2.779493 2.513074 6.682602 8.798384 -12.339035 5.644517 14.110953 -39.728917 32.925676 87.294678 1.036481 13.789342 0.268055 2.009509 -3.190280 -14.490437 -16.382895 -1.614277 -16.197774 -55.242358 -54.894258 -90.668019 -8.874915 -38.854006 -0.363878 12.129636 23.068378 -17.024514 9.665984 -6.151022 -12.931485 23.902739 -6.836514 -18.331911 -21.452284 15.597615 0.932693 -0.287834 -0.332776 -5.531677 -21.393640 8.188547 -19.611137 23.940056 -7.306363 -5.052206 2.535663 -8.326972 -1.082082 -0.364971 -0.790498
-41.272923 87.729083 152.147796 -5.581103 -7.851580 -1.383613 3.595019 5.330863 1.395122 1.812089 2.277718 0.635247 1.812089 2.277718 0.635247 1.356521 1.710191 0.469621 -0.261705 21.036832 3.412703 -1.471070 2.961371 6.270748 7.496914 -11.995788 6.015637 12.559348 -38.893935 36.132321 93.207305 -0.608204 15.680053 -0.086681 2.385699 -2.972790 -14.977381 -16.256828 -1.600384 -15.726640 -55.710696 -53.858809 -88.983244 -6.738090 -37.570082 -0.796053 12.032229 22.968455 -16.566408 10.175035 -6.058261 -11.946855 23.132381 -6.548798 -18.151446 -20.988008 15.312565 1.294370 -0.318527 -0.147052 -5.445425 -20.494441 8.931738 -18.725698 23.812834 -7.135278 -4.292795 2.258688 -8.154186 -1.337061 -0.379928 -0.887297
-41.295422 87.893530 152.401067 -7.354737 -8.054538 -1.514548 2.925727 5.340751 1.182983 1.618905 2.233854 0.574281 1.618905 2.233854 0.574281 1.211926 1.676927 0.424740 0.441344 21.350743 3.292731 -0.148316 3.504962 5.841751 6.588720 -11.414164 6.466514 11.091438 -38.215424 38.558353 98.657212 -2.157504 17.534743 -0.152796 2.959813 -2.841001 -15.376692 -15.919050 -1.691921 -15.032017 -56.320830 -52.962575 -87.170448 -4.609428 -36.710024 -1.124600 12.050619 22.291588 -16.120583 10.553902 -6.031972 -10.900627 22.517549 -6.282441 -17.877994 -20.527659 15.005020 1.526991 -0.443850 -0.001552 -5.225123 -19.634049 9.531453 -17.824082 23.769046 -6.941928 -3.642037 1.848598 -8.068754 -1.464820 -0.315710 -0.915932
-41.294382 88.065802 152.656471 -9.337648 -8.281018 -1.599356 2.466705 5.298253 0.993816 1.443980 2.184841 0.521726 1.443980 2.184841 0.521726 1.080989 1.639875 0.386085 1.141168 21.687930 3.173156 1.165310 4.100256 5.420428 5.832616 -10.825716 6.831009 9.874564 -37.642234 40.376357 103.565084 -4.095813 19.435613 -0.157275 3.208253 -2.822522 -15.648792 -15.464066 -1.814740 -14.468026 -56.879123 -51.903828 -85.440246 -2.380128 -36.014196 -1.428858 12.100943 21.766868 -15.591055 10.881508 -6.028955 -9.730056 22.052306 -6.049541 -17.468073 -20.272947 14.749014 1.555519 -0.500512 0.060772 -4.805513 -18.781588 10.084399 -16.966868 23.803406 -6.787085 -3.007049 1.441600 -7.997533 -1.536151 -0.313412 -0.925001
-41.389629 88.208724 152.899432 -11.092751 -8.634569 -1.740720 1.842039 5.405261 0.871639 1.301812 2.156450 0.471824 1.301812 2.156450 0.471824 0.974579 1.618352 0.349233 1.803279 21.966113 3.062555 2.402473 4.595213 5.032549 5.172236 -10.444605 7.121249 9.114499 -37.044810 41.530867 107.654131 -6.394415 20.890068 -0.306444 3.419699 -2.826476 -15.900215 -15.006923 -1.910049 -14.457525 -57.199702 -50.400264 -83.879531 -0.003547 -35.178852 -1.705792 12.167992 21.570353 -15.305837 11.190335 -6.105206 -8.542121 21.792494 -5.871754 -17.444872 -19.915778 14.582346 1.937056 -0.593090 0.257448 -4.590086 -17.823948 10.671666 -16.174715 23.871905 -6.672105 -2.225252 0.995614 -7.886623 -1.739302 -0.282336 -1.008076
-41.416055 88.304884 153.106841 -13.059918 -8.866637 -1.779286 1.513886 5.433474 0.711476 1.197551 2.149963 0.425931 1.197551 2.149963 0.425931 0.896559 1.613315 0.315198 2.401457 22.166862 2.951183 3.519524 4.954679 4.665476 4.644743 -10.231103 7.359377 8.766282 -36.508582 42.322312 111.015519 -8.758627 21.973280 -0.443260 3.694363 -2.962279 -16.140407 -14.630750 -1.950826 -14.200244 -57.513778 -49.136049 -82.251986 2.135189 -34.639217 -2.006232 12.190110 21.107291 -14.698446 11.262101 -6.134714 -7.385446 21.764092 -5.719845 -17.272438 -19.811228 14.456614 2.044209 -0.624290 0.345036 -4.159897 -17.068730 11.181396 -15.420518 24.040542 -6.600463 -1.571803 0.486578 -7.832668 -1.782757 -0.237985 -1.034922
-41.467522 88.362108 153.258481 -14.945251 -9.053341 -1.797636 1.212459 5.437651 0.562482 1.123213 2.146468 0.383794 1.123213 2.146468 0.383794 0.840963 1.610564 0.283866 2.942010 22.321205 2.811828 4.537418 5.234924 4.266444 4.294008 -10.060912 7.523565 8.759318 -36.181382 42.836649 113.596850 -10.725148 22.674031 -0.421308 3.740952 -3.014979 -16.296771 -14.265028 -1.980802 -14.009614 -57.685104 -47.963545 -80.663535 3.998147 -34.176599 -2.217837 12.163321 20.640983 -14.022045 11.109585 -6.155224 -6.375423 22.001767 -5.646020 -17.241891 -19.772610 14.403732 2.248654 -0.627006 0.476139 -3.895556 -16.428391 11.688068 -14.767462 24.283890 -6.614155 -0.745826 -0.024377 -7.769350 -1.870283 -0.192531 -1.097362
